<?xml version="1.0" encoding="UTF-8" standalone="no"?>
<!DOCTYPE svg PUBLIC "-//W3C//DTD SVG 1.1//EN" "http://www.w3.org/Graphics/SVG/1.1/DTD/svg11.dtd">
<svg width="100%" height="100%" viewBox="0 0 597 382" version="1.1" xmlns="http://www.w3.org/2000/svg" xmlns:xlink="http://www.w3.org/1999/xlink" xml:space="preserve" xmlns:serif="http://www.serif.com/" style="fill-rule:evenodd;clip-rule:evenodd;stroke-linejoin:round;stroke-miterlimit:2;">
    <g transform="matrix(1,0,0,1,-77.405,-56.1547)">
        <g id="_1" serif:id="1">
            <g id="OBJECTS">
                <g transform="matrix(-1,0,0,1,751.068,-6)">
                    <rect x="77.405" y="62.155" width="596.258" height="381.69" style="fill:white;"/>
                </g>
                <g transform="matrix(1,0,0,1,77.4053,56.1547)">
                    <path d="M0,381.69L221.122,381.69C269.712,338.558 300.073,277.283 300.073,209.293C300.073,118.455 245.886,39.596 166.416,0L0,0L0,381.69Z" style="fill:rgb(255,224,198);fill-rule:nonzero;"/>
                </g>
                <g transform="matrix(0,-1,-1,0,256.767,221.552)">
                    <path d="M-29.929,-29.928C-46.457,-29.928 -59.857,-16.529 -59.857,0.001C-59.857,16.53 -46.457,29.929 -29.929,29.929C-13.399,29.929 0,16.53 0,0.001C0,-16.529 -13.399,-29.928 -29.929,-29.928" style="fill:rgb(255,247,243);fill-rule:nonzero;"/>
                </g>
                <g transform="matrix(1,0,0,1,77.4053,124.426)">
                    <path d="M0,141.37C12.336,148.749 26.764,152.993 42.184,152.993C87.641,152.993 124.492,116.142 124.492,70.685C124.492,25.227 87.641,-11.623 42.184,-11.623C26.764,-11.623 12.336,-7.379 0,-0L0,141.37Z" style="fill:rgb(255,241,229);fill-opacity:0.54;fill-rule:nonzero;"/>
                </g>
                <g transform="matrix(0,-1,-1,0,329.593,118.797)">
                    <path d="M-51.876,-51.876C-80.527,-51.876 -103.752,-28.65 -103.752,0C-103.752,28.651 -80.527,51.876 -51.876,51.876C-23.226,51.876 0,28.651 0,0C0,-28.65 -23.226,-51.876 -51.876,-51.876" style="fill:rgb(255,230,211);fill-opacity:0.3;fill-rule:nonzero;"/>
                </g>
                <g transform="matrix(0,-1,-1,0,232.824,92.8591)">
                    <path d="M-29.928,-29.928C-46.457,-29.928 -59.857,-16.529 -59.857,0.001C-59.857,16.53 -46.457,29.928 -29.928,29.928C-13.399,29.928 0.001,16.53 0.001,0.001C0.001,-16.529 -13.399,-29.928 -29.928,-29.928" style="fill:rgb(255,235,218);fill-opacity:0.48;fill-rule:nonzero;"/>
                </g>
                <g transform="matrix(0,-1,-1,0,310.638,206.588)">
                    <path d="M-18.955,-18.955C-29.423,-18.955 -37.91,-10.469 -37.91,0C-37.91,10.468 -29.423,18.955 -18.955,18.955C-8.486,18.955 0,10.468 0,0C0,-10.469 -8.486,-18.955 -18.955,-18.955" style="fill:rgb(255,241,231);fill-opacity:0.73;fill-rule:nonzero;"/>
                </g>
                <g transform="matrix(0,-1,-1,0,407.906,339.723)">
                    <path d="M-45.393,-45.392C-48.699,-45.392 -51.378,-25.07 -51.378,0.001C-51.378,25.07 -48.699,45.393 -45.393,45.393C-42.087,45.393 -39.407,25.07 -39.407,0.001C-39.407,-25.07 -42.087,-45.392 -45.393,-45.392" style="fill:rgb(255,197,156);fill-rule:nonzero;"/>
                </g>
                <g transform="matrix(0,-1,-1,0,612.918,331.742)">
                    <path d="M-45.891,-45.891C-48.37,-45.891 -50.38,-25.345 -50.38,0C-50.38,25.344 -48.37,45.891 -45.891,45.891C-43.412,45.891 -41.402,25.344 -41.402,0C-41.402,-25.345 -43.412,-45.891 -45.891,-45.891" style="fill:rgb(255,197,156);fill-rule:nonzero;"/>
                </g>
                <g transform="matrix(1,0,0,1,0,-20)">
                    <g>
                        <g transform="matrix(-1,0,0,1,781.213,-138.467)">
                            <rect x="374.115" y="317.355" width="32.983" height="3.757" style="fill:rgb(48,197,204);"/>
                        </g>
                        <g transform="matrix(-1,0,0,1,875.131,-138.467)">
                            <rect x="433.989" y="317.355" width="7.153" height="3.757" style="fill:rgb(48,197,204);"/>
                        </g>
                        <g transform="matrix(-1,0,0,1,979.791,-138.467)">
                            <rect x="481.6" y="317.355" width="16.591" height="3.757" style="fill:rgb(48,197,204);"/>
                        </g>
                        <g transform="matrix(-1,0,0,1,905.012,-116.518)">
                            <rect x="447.391" y="306.381" width="10.23" height="3.756" style="fill:rgb(48,197,204);"/>
                        </g>
                        <g transform="matrix(-1,0,0,1,933.61,-116.518)">
                            <rect x="461.69" y="306.381" width="10.23" height="3.756" style="fill:rgb(48,197,204);"/>
                        </g>
                        <g transform="matrix(-1,0,0,1,806.984,-116.518)">
                            <rect x="395.168" y="306.381" width="16.648" height="3.756" style="fill:rgb(48,197,204);"/>
                        </g>
                        <g transform="matrix(-1,0,0,1,764.561,-116.518)">
                            <rect x="374.114" y="306.381" width="16.333" height="3.756" style="fill:rgb(48,197,204);"/>
                        </g>
                        <g transform="matrix(-1,0,0,1,860.188,-116.518)">
                            <rect x="416.386" y="306.381" width="27.416" height="3.756" style="fill:rgb(48,197,204);"/>
                        </g>
                        <g transform="matrix(1,0,0,1,329.01,350.245)">
                            <path d="M0,-3.371L-5.403,-3.371L-5.403,-8.775L-8.775,-8.775L-8.775,-3.371L-14.179,-3.371L-14.179,0.001L-8.775,0.001L-8.775,5.404L-5.403,5.404L-5.403,0.001L0,0.001L0,-3.371Z" style="fill:rgb(48,197,204);fill-rule:nonzero;"/>
                        </g>
                        <g transform="matrix(0,-1,-1,0,330.591,333.589)">
                            <path d="M-3.341,-3.339C-5.185,-3.339 -6.681,-1.844 -6.681,0.001C-6.681,1.846 -5.185,3.341 -3.341,3.341C-1.495,3.341 0.001,1.846 0.001,0.001C0.001,-1.844 -1.495,-3.339 -3.341,-3.339" style="fill:rgb(61,156,255);fill-rule:nonzero;"/>
                        </g>
                        <g transform="matrix(1,0,0,1,612.866,146.731)">
                            <path d="M0,233.444L-254.26,233.444C-264.425,233.444 -272.742,225.127 -272.742,214.962L-272.742,18.482C-272.742,8.317 -264.425,0 -254.26,0L0,0C10.165,0 18.482,8.317 18.482,18.482L18.482,214.962C18.482,225.127 10.165,233.444 0,233.444" style="fill:rgb(48,197,204);fill-rule:nonzero;"/>
                        </g>
                        <g transform="matrix(1,0,0,1,360.939,155.044)">
                            <path d="M0,216.817C-6.634,216.817 -12.013,211.438 -12.013,204.804L-12.013,12.013C-12.013,5.378 -6.634,0 0,0L249.594,0C256.229,0 261.607,5.378 261.607,12.013L261.607,204.804C261.607,211.438 256.229,216.817 249.594,216.817L0,216.817Z" style="fill:rgb(11,155,155);fill-rule:nonzero;"/>
                        </g>
                        <g transform="matrix(1,0,0,1,607.615,161.313)">
                            <path d="M0,204.279L-243.758,204.279C-248.043,204.279 -251.518,200.805 -251.518,196.519L-251.518,7.76C-251.518,3.474 -248.043,0 -243.758,0L0,0C4.285,0 7.76,3.474 7.76,7.76L7.76,196.519C7.76,200.805 4.285,204.279 0,204.279" style="fill:rgb(198,244,255);fill-rule:nonzero;"/>
                        </g>
                        <g transform="matrix(-0.0540105,0.99854,0.99854,0.0540105,502.585,210.768)">
                            <path d="M163.865,-171.345C173.168,-164.989 179.058,-154.065 178.408,-142.054L163.865,126.819C163.215,138.831 156.181,149.056 146.247,154.371L163.865,-171.345Z" style="fill:rgb(11,155,155);fill-rule:nonzero;"/>
                        </g>
                        <g transform="matrix(1,0,0,1,326.122,365.138)">
                            <path d="M0,4.727L319.229,4.727C320.52,3.257 321.691,1.68 322.71,0L-3.481,0C-2.462,1.68 -1.291,3.257 0,4.727" style="fill:rgb(48,197,204);fill-rule:nonzero;"/>
                        </g>
                        <g transform="matrix(-1,0,0,1,825.457,106.051)">
                            <rect x="376.482" y="176.69" width="72.493" height="40.569" style="fill:rgb(219,90,40);"/>
                        </g>
                        <g transform="matrix(-1,0,0,1,922.051,-138.467)">
                            <rect x="447.39" y="317.355" width="27.271" height="3.757" style="fill:rgb(48,197,204);"/>
                        </g>
                        <g transform="matrix(-1,0,0,1,840.904,-138.467)">
                            <rect x="412.128" y="317.355" width="16.648" height="3.757" style="fill:rgb(48,197,204);"/>
                        </g>
                        <g transform="matrix(-1,0,0,1,1136.05,-99.462)">
                            <rect x="544.082" y="275.788" width="47.886" height="47.886" style="fill:rgb(219,90,40);"/>
                        </g>
                    </g>
                    <g>
                        <g transform="matrix(-1,0,0,1,774.075,39.54)">
                            <rect x="376.873" y="227.429" width="20.329" height="5.602" style="fill:rgb(49,208,168);"/>
                        </g>
                        <g transform="matrix(-1,0,0,1,877.621,39.54)">
                            <rect x="428.646" y="227.429" width="20.329" height="5.602" style="fill:rgb(49,208,168);"/>
                        </g>
                        <g transform="matrix(-1,0,0,1,825.849,39.54)">
                            <rect x="402.76" y="227.429" width="20.329" height="5.602" style="fill:rgb(49,208,168);"/>
                        </g>
                        <g transform="matrix(-0.97123,0.238145,0.238145,0.97123,445.209,183.214)">
                            <rect x="-68.313" y="-8.254" width="66.325" height="24.709" style="fill:rgb(254,186,64);"/>
                        </g>
                        <g transform="matrix(-0.971231,0.238141,0.238141,0.971231,451.061,182.772)">
                            <rect x="-48.558" y="-5.866" width="48.854" height="3.416" style="fill:rgb(254,219,155);"/>
                        </g>
                        <g transform="matrix(-0.971232,0.238135,0.238135,0.971232,452.167,187.767)">
                            <rect x="-40.641" y="-4.91" width="40.822" height="3.416" style="fill:rgb(254,219,155);"/>
                        </g>
                        <g transform="matrix(-0.971238,0.238111,0.238111,0.971238,452.842,191.819)">
                            <rect x="-19.497" y="-2.355" width="19.369" height="3.416" style="fill:rgb(254,219,155);"/>
                        </g>
                        <g transform="matrix(-0.971238,0.23811,0.23811,0.971238,492.501,174.235)">
                            <rect x="-10.632" y="-1.284" width="10.374" height="3.414" style="fill:white;"/>
                        </g>
                        <g transform="matrix(-1,0,0,1,824.561,-37.445)">
                            <rect x="376.106" y="239.204" width="72.349" height="59.037" style="fill:white;"/>
                        </g>
                        <g transform="matrix(-1,0,0,1,1050.03,-1.758)">
                            <rect x="453.872" y="237.567" width="142.282" height="26.624" style="fill:rgb(76,176,221);"/>
                        </g>
                        <g transform="matrix(-1,0,0,1,1145.29,-1.758)">
                            <rect x="553.392" y="241.42" width="38.504" height="18.918" style="fill:white;"/>
                        </g>
                        <g transform="matrix(-1,0,0,1,1007.15,-14.733)">
                            <rect x="459.075" y="255.542" width="88.997" height="3.649" style="fill:rgb(117,213,239);"/>
                        </g>
                        <g transform="matrix(-1,0,0,1,1007.15,-1.759)">
                            <rect x="459.075" y="249.055" width="88.997" height="3.649" style="fill:rgb(117,213,239);"/>
                        </g>
                        <g transform="matrix(-1,0,0,1,978.066,11.218)">
                            <rect x="459.075" y="242.567" width="59.916" height="3.648" style="fill:rgb(117,213,239);"/>
                        </g>
                        <g transform="matrix(-1,0,0,1,1044.54,127.056)">
                            <rect x="453.906" y="154.395" width="136.732" height="64.154" style="fill:white;"/>
                        </g>
                        <g transform="matrix(-1,0,0,1,1044.54,73.539)">
                            <rect x="453.905" y="207.912" width="136.733" height="10.637" style="fill:rgb(253,190,68);"/>
                        </g>
                        <g transform="matrix(-1,0,0,1,993.397,119.841)">
                            <rect x="457.221" y="187.372" width="78.955" height="5.415" style="fill:rgb(152,219,229);"/>
                        </g>
                        <g transform="matrix(-1,0,0,1,985.246,139.097)">
                            <rect x="457.22" y="177.744" width="70.806" height="5.415" style="fill:rgb(152,219,229);"/>
                        </g>
                        <g transform="matrix(-1,0,0,1,962.196,158.35)">
                            <rect x="457.221" y="168.117" width="47.754" height="5.416" style="fill:rgb(152,219,229);"/>
                        </g>
                        <g transform="matrix(-1,0,0,1,942.902,102.103)">
                            <rect x="457.221" y="196.241" width="28.46" height="5.415" style="fill:rgb(152,219,229);"/>
                        </g>
                        <g transform="matrix(-1,0,0,1,1129.03,137.457)">
                            <rect x="543.865" y="160.623" width="41.297" height="41.297" style="fill:rgb(134,210,232);"/>
                        </g>
                        <g transform="matrix(1,0,0,1,568.736,318.755)">
                            <path d="M0,-0.296C0.648,-1.171 1.036,-2.25 1.036,-3.423L1.036,-6.578C1.036,-9.483 -1.317,-11.837 -4.223,-11.837C-7.127,-11.837 -9.481,-9.483 -9.481,-6.578L-9.481,-3.423C-9.481,-2.19 -9.055,-1.058 -8.344,-0.161C-13.169,1.538 -16.629,6.134 -16.628,11.541L9.381,11.541C9.381,11.541 8.374,2.132 0,-0.296" style="fill:rgb(246,255,250);fill-rule:nonzero;"/>
                        </g>
                        <g transform="matrix(0,-1,-1,0,460.97,284.353)">
                            <path d="M-2.683,-2.683C-4.166,-2.683 -5.368,-1.482 -5.368,0.001C-5.368,1.483 -4.166,2.683 -2.683,2.683C-1.202,2.683 0.001,1.483 0.001,0.001C0.001,-1.482 -1.202,-2.683 -2.683,-2.683" style="fill:rgb(219,90,40);fill-rule:nonzero;"/>
                        </g>
                        <g transform="matrix(0,-1,-1,0,469.569,284.353)">
                            <path d="M-2.683,-2.683C-4.166,-2.683 -5.368,-1.481 -5.368,0.001C-5.368,1.483 -4.166,2.683 -2.683,2.683C-1.202,2.683 0.001,1.483 0.001,0.001C0.001,-1.481 -1.202,-2.683 -2.683,-2.683" style="fill:rgb(255,231,128);fill-rule:nonzero;"/>
                        </g>
                        <g transform="matrix(0,-1,-1,0,479.545,284.352)">
                            <path d="M-2.684,-2.684C-4.166,-2.684 -5.368,-1.482 -5.368,0.001C-5.368,1.482 -4.166,2.684 -2.684,2.684C-1.203,2.684 0,1.482 0,0.001C0,-1.482 -1.203,-2.684 -2.684,-2.684" style="fill:rgb(31,178,136);fill-rule:nonzero;"/>
                        </g>
                        <g transform="matrix(1,0,0,1,611.129,397.341)">
                            <path d="M0,-8.29C0,-8.29 0.413,-7.03 -3.45,-5.268C-7.312,-3.505 -11.392,-4.127 -12.392,-2.646C-13.392,-1.166 -13.626,0.236 -13.626,0.236L8.354,0.236C8.354,0.236 8.187,-5.832 5.698,-8.526C6.015,-7.947 0,-8.29 0,-8.29" style="fill:rgb(158,71,45);fill-rule:nonzero;"/>
                        </g>
                        <g transform="matrix(1,0,0,1,635.066,397.012)">
                            <path d="M0,-7.97C0,-7.97 0.397,-6.759 -3.317,-5.064C-7.031,-3.369 -10.952,-3.968 -11.914,-2.544C-12.876,-1.121 -13.102,0.228 -13.102,0.228L8.031,0.228C8.031,0.228 7.871,-5.608 5.479,-8.198C5.783,-7.641 0,-7.97 0,-7.97" style="fill:rgb(158,71,45);fill-rule:nonzero;"/>
                        </g>
                        <g transform="matrix(-0.984892,0.173169,0.173169,0.984892,578.105,256.166)">
                            <path d="M-25.261,22.02L-9.057,22.02L-2.164,-3.587L-19.333,-1.991L-25.261,22.02Z" style="fill:white;fill-rule:nonzero;"/>
                        </g>
                        <g transform="matrix(1,0,0,1,586.873,271.071)">
                            <path d="M0,-0.021C0.004,-0.023 0.008,-0.024 0.014,-0.023C-0.042,0.001 -0.05,0.003 0,-0.021" style="fill:rgb(38,40,69);fill-rule:nonzero;"/>
                        </g>
                    </g>
                    <g>
                        <g transform="matrix(1,0,0,1,440.744,215.566)">
                            <path d="M0,-3.371L-5.403,-3.371L-5.403,-8.775L-8.775,-8.775L-8.775,-3.371L-14.18,-3.371L-14.18,0.001L-8.775,0.001L-8.775,5.404L-5.403,5.404L-5.403,0.001L0,0.001L0,-3.371Z" style="fill:rgb(253,190,68);fill-rule:nonzero;"/>
                        </g>
                        <g transform="matrix(1,0,0,1,390.447,249.486)">
                            <path d="M0,-8.079C-2.229,-8.079 -4.041,-6.267 -4.041,-4.039C-4.041,-1.812 -2.229,0 0,0C2.226,0 4.04,-1.812 4.04,-4.039C4.04,-6.267 2.226,-8.079 0,-8.079M0,4.409C-4.658,4.409 -8.45,0.619 -8.45,-4.039C-8.45,-8.698 -4.658,-12.488 0,-12.488C4.659,-12.488 8.449,-8.698 8.449,-4.039C8.449,0.619 4.659,4.409 0,4.409" style="fill:rgb(48,197,204);fill-rule:nonzero;"/>
                        </g>
                        <g transform="matrix(1,0,0,1,650.245,179.651)">
                            <path d="M0,-3.371L-5.403,-3.371L-5.403,-8.775L-8.775,-8.775L-8.775,-3.371L-14.18,-3.371L-14.18,0.001L-8.775,0.001L-8.775,5.404L-5.403,5.404L-5.403,0.001L0,0.001L0,-3.371Z" style="fill:rgb(48,197,204);fill-rule:nonzero;"/>
                        </g>
                        <g transform="matrix(0,-1,-1,0,619.902,136.058)">
                            <path d="M-3.342,-3.34C-5.186,-3.34 -6.682,-1.845 -6.682,0C-6.682,1.846 -5.186,3.342 -3.342,3.342C-1.497,3.342 0,1.846 0,0C0,-1.845 -1.497,-3.34 -3.342,-3.34" style="fill:rgb(61,156,255);fill-rule:nonzero;"/>
                        </g>
                        <g transform="matrix(1,0,0,1,558.049,193.619)">
                            <path d="M0,-8.079C-2.229,-8.079 -4.042,-6.267 -4.042,-4.04C-4.042,-1.812 -2.229,0 0,0C2.226,0 4.039,-1.812 4.039,-4.04C4.039,-6.267 2.226,-8.079 0,-8.079M0,4.409C-4.659,4.409 -8.451,0.619 -8.451,-4.04C-8.451,-8.699 -4.659,-12.488 0,-12.488C4.658,-12.488 8.448,-8.699 8.448,-4.04C8.448,0.619 4.658,4.409 0,4.409" style="fill:rgb(254,186,64);fill-rule:nonzero;"/>
                        </g>
                        <g transform="matrix(1,0,0,1,602.941,137.752)">
                            <path d="M0,-8.079C-2.229,-8.079 -4.041,-6.267 -4.041,-4.039C-4.041,-1.812 -2.229,0 0,0C2.226,0 4.039,-1.812 4.039,-4.039C4.039,-6.267 2.226,-8.079 0,-8.079M0,4.409C-4.659,4.409 -8.451,0.619 -8.451,-4.039C-8.451,-8.698 -4.659,-12.488 0,-12.488C4.659,-12.488 8.448,-8.698 8.448,-4.039C8.448,0.619 4.659,4.409 0,4.409" style="fill:rgb(254,186,64);fill-rule:nonzero;"/>
                        </g>
                    </g>
                    <g>
                        <g transform="matrix(1,0,0,1,617.846,244.544)">
                            <path d="M0,-16.134C0,-16.134 -2.104,-11.926 -2.104,-8.067C-2.104,-5.37 -1.762,-1.474 -1.556,0.627C-1.48,1.391 -0.726,1.895 0.009,1.669L3.156,0.701L2.98,5.261L11.762,5.108L13.678,-13.328C13.678,-13.328 6.312,-21.395 0,-16.134" style="fill:rgb(253,158,113);fill-rule:nonzero;"/>
                        </g>
                        <g transform="matrix(1,0,0,1,618.508,231.402)">
                            <path d="M0,6.687C0,6.687 0.494,3.036 3.247,3.792C6.001,4.548 2.845,8.23 2.845,8.23L5.476,12.965C7.402,13.663 9.53,13.713 11.613,12.79C11.613,12.79 14.536,3.905 14.536,1.099C14.536,-1.707 11.978,-3.602 11.978,-3.602C11.978,-3.602 5.124,-7.026 1.441,-6.851C-2.241,-6.675 -2.592,-2.993 -2.592,-2.993C-2.592,-2.993 -3.994,-0.187 -2.592,1.041C-1.188,2.268 0,6.687 0,6.687" style="fill:rgb(32,18,81);fill-rule:nonzero;"/>
                        </g>
                        <g transform="matrix(1,0,0,1,630.004,249.453)">
                            <path d="M0,-2.338L-0.396,0.199L-9.47,0.234C-9.47,0.234 -7.716,-2.572 0,-2.338" style="fill:rgb(106,165,204);fill-rule:nonzero;"/>
                        </g>
                        <g transform="matrix(1,0,0,1,591.19,264.563)">
                            <path d="M0,5.233C0,5.233 0.635,3.244 -1.93,2.076C-1.863,1.61 -2.442,-0.718 -2.981,-1.256C-3.521,-1.793 -3.858,1.199 -3.858,1.199C-3.858,1.199 -6.37,-3.273 -7.015,-2.132C-7.66,-0.993 -1.345,7.804 -1.17,8.155C-0.994,8.506 0,5.233 0,5.233" style="fill:rgb(253,158,113);fill-rule:nonzero;"/>
                        </g>
                        <g transform="matrix(1,0,0,1,614.806,389.635)">
                            <path d="M0,-90.963L-6.079,-39.523L-4.846,0.351L2.806,-0.195C2.806,-0.195 4.969,-21.168 5.144,-26.429C5.319,-31.69 3.741,-39.757 3.741,-39.757L11.457,-71.556L12.74,-71.322L13.094,-39.99L20.123,-0.195L26.555,0.115C26.555,0.115 26.714,-20.408 26.187,-25.493C25.661,-30.579 22.914,-40.75 22.914,-40.75L25.72,-73.192C25.72,-73.192 28.525,-81.727 23.499,-91.314C22.855,-91.255 0,-90.963 0,-90.963" style="fill:rgb(32,18,81);fill-rule:nonzero;"/>
                        </g>
                        <g transform="matrix(1,0,0,1,620.534,300.403)">
                            <path d="M0,-50.716C0,-50.716 -10.872,-47.209 -12.86,-45.221C-14.848,-43.234 -20.547,-22.749 -20.547,-22.749L-29.137,-31.356L-31.799,-25.113C-31.799,-25.113 -21.745,-10.148 -18.589,-9.68C-15.432,-9.214 -8.301,-28.62 -8.301,-28.62C-8.301,-28.62 -7.653,-18.019 -6.43,-12.72C-5.027,-6.641 -5.729,-1.731 -5.729,-1.731C4.001,0.035 12.275,-0.328 17.771,-2.082L20.493,-22.506C20.493,-22.506 24.2,-22.073 25.369,-23.359C26.538,-24.645 21.16,-45.805 19.991,-47.442C18.822,-49.079 9.073,-50.751 9.073,-50.751L0,-50.716Z" style="fill:rgb(150,196,234);fill-rule:nonzero;"/>
                        </g>
                        <g transform="matrix(-0.996853,-0.0792666,-0.0792666,0.996853,629.124,290.244)">
                            <path d="M0.11,-26.59C0.202,-26.999 0.876,-26.844 0.829,-26.433C-0.193,-17.698 -0.576,-9.133 0.11,-0.349C0.156,0.24 -0.731,0.438 -0.812,-0.172C-1.99,-8.895 -1.805,-17.982 0.11,-26.59" style="fill:rgb(106,165,204);fill-rule:nonzero;"/>
                        </g>
                        <g transform="matrix(1,0,0,1,641.1,299.303)">
                            <path d="M0,-29.063C-0.059,-29.357 -0.505,-29.279 -0.51,-28.994C-0.604,-23.857 -1.239,-18.948 -2.213,-13.905C-3.079,-9.424 -3.871,-4.938 -3.58,-0.356C-3.539,0.285 -2.548,0.294 -2.575,-0.356C-2.797,-5.648 -1.721,-10.757 -0.758,-15.93C0.042,-20.226 0.867,-24.716 0,-29.063" style="fill:rgb(106,165,204);fill-rule:nonzero;"/>
                        </g>
                        <g transform="matrix(1,0,0,1,613.23,291.132)">
                            <path d="M0,-21.048C-2.92,-19.193 -4.016,-15.561 -5.134,-12.471C-6.646,-8.291 -8.156,-4.184 -11.449,-1.047C-11.939,-0.58 -11.207,0.141 -10.709,-0.307C-4.631,-5.779 -4.92,-14.725 0.264,-20.705C0.418,-20.883 0.221,-21.189 0,-21.048" style="fill:rgb(106,165,204);fill-rule:nonzero;"/>
                        </g>
                        <g transform="matrix(-0.0789398,-0.996879,-0.996879,0.0789398,623.476,288.178)">
                            <path d="M-9.777,-14.217C-9.777,-14.217 -10.478,0.614 -6.98,9.25C-6.998,9.018 -9.777,9.472 -9.777,9.472C-9.777,9.472 -14.908,-1.485 -12.63,-14.696C-12.581,-14.596 -9.777,-14.217 -9.777,-14.217" style="fill:rgb(158,71,45);fill-rule:nonzero;"/>
                        </g>
                        <g transform="matrix(1,0,0,1,485.998,364.988)">
                            <path d="M0,-8.313C0,-8.313 -1.22,-5.653 -3.325,-5.209C-5.432,-4.766 -10.974,-3.546 -11.861,-2.771C-12.748,-1.995 -12.748,0 -12.748,0L4.845,0C4.845,0 4.813,-5.326 3.792,-8.094C4.212,-8.091 0,-8.313 0,-8.313" style="fill:rgb(26,19,58);fill-rule:nonzero;"/>
                        </g>
                        <g transform="matrix(1,0,0,1,519.917,364.988)">
                            <path d="M0,-8.313C0,-8.313 -1.22,-5.653 -3.325,-5.209C-5.432,-4.766 -10.974,-3.546 -11.86,-2.771C-12.747,-1.995 -12.747,0 -12.747,0L4.845,0C4.845,0 4.813,-5.326 3.792,-8.094C4.212,-8.091 0,-8.313 0,-8.313" style="fill:rgb(26,19,58);fill-rule:nonzero;"/>
                        </g>
                        <g transform="matrix(1,0,0,1,517.761,209.937)">
                            <path d="M0,-26.162C0,-26.162 -4.9,-27.412 -5.196,-26.632C-5.492,-25.851 2.378,-23.524 2.378,-23.524L9.465,-3.873L6.812,2.415L11.689,7.735C11.689,7.735 17.01,0.53 17.453,-1.576C17.896,-3.682 4.816,-24.854 4.816,-24.854C4.816,-24.854 2.221,-33.103 1.823,-33.5C1.427,-33.897 -3.259,-33.647 -4.32,-33.629C-5.381,-33.611 -1.231,-29.41 -1.231,-29.41L0,-26.162Z" style="fill:rgb(231,150,115);fill-rule:nonzero;"/>
                        </g>
                        <g transform="matrix(1,0,0,1,498.697,212.403)">
                            <path d="M0,-14.081C0,-14.081 -2.335,-10.804 -2.834,-7.312C-3.333,-3.82 -2.668,-0.495 -2.668,-0.495L1.617,-0.636L1.617,3.373L10.135,3.373C10.135,3.373 10.302,0.336 10.634,-1.326C10.967,-2.989 13.294,-6.148 13.294,-6.148L9.47,-16.956L3.983,-17.454L0,-14.081Z" style="fill:rgb(231,150,115);fill-rule:nonzero;"/>
                        </g>
                        <g transform="matrix(1,0,0,1,500.852,198.274)">
                            <path d="M0,5.155C0,5.155 1.496,1.663 3.325,2.993C5.154,4.324 2.826,7.15 2.826,7.15C2.826,7.15 3.99,11.972 5.985,12.637L7.98,13.302C7.98,13.302 13.135,8.481 13.967,7.15C14.798,5.82 12.637,-1.828 11.14,-3.491C9.644,-5.154 3.159,-4.988 2.66,-5.819C2.161,-6.65 0.499,-8.147 -1.164,-7.482C-2.827,-6.816 -2.494,-1.329 -2.494,-1.329C-2.494,-1.329 -0.438,0.44 -0.303,1.717C-0.167,2.993 -1.118,4.685 -1.118,4.685L0,5.155Z" style="fill:rgb(32,18,81);fill-rule:nonzero;"/>
                        </g>
                        <g transform="matrix(1,0,0,1,492.796,265.698)">
                            <path d="M0,-49.666C0,-49.666 8.499,-50.907 13.376,-51.018C18.253,-51.129 26.013,-48.58 26.013,-48.58L31.66,-54.625L38.853,-47.865C38.853,-47.865 32.73,-38.828 30.757,-36.721C28.784,-34.613 27.343,-24.747 26.899,-21.754C26.456,-18.762 25.348,-1.248 25.348,-1.248C25.348,-1.248 20.138,4.959 -1.256,-1.802C-1.478,-2.024 -0.369,-14.661 -0.479,-17.764C-0.591,-20.868 -3.362,-31.398 -3.916,-33.948C-4.471,-36.497 -13.309,-41.599 -13.309,-41.599C-13.309,-41.599 -14.4,-47.81 -10.322,-50.799C-9.791,-50.464 0,-49.666 0,-49.666" style="fill:rgb(32,18,81);fill-rule:nonzero;"/>
                        </g>
                        <g transform="matrix(1,0,0,1,473.028,214.675)">
                            <path d="M0,-24.049C0,-24.049 -3.214,-21.056 -3.436,-19.837C-3.657,-18.617 0.987,-4.729 0.987,-4.729L9.445,0.223L6.459,9.424C6.459,9.424 -2.771,2.998 -4.101,1.113C-5.431,-0.771 -7.759,-19.615 -7.759,-19.615C-7.759,-19.615 -10.752,-23.384 -10.974,-24.382C-11.195,-25.379 -11.893,-28.642 -11.378,-29.283C-10.862,-29.924 -7.433,-33.473 -6.931,-32.419C-6.429,-31.365 -4.583,-23.687 -4.583,-23.687C-4.583,-23.687 -0.775,-25.379 0,-24.049" style="fill:rgb(231,150,115);fill-rule:nonzero;"/>
                        </g>
                        <g transform="matrix(1,0,0,1,491.54,356.787)">
                            <path d="M0,-92.891L-4.821,-47.444L-7.315,0.775L0.998,1.108C0.998,1.108 6.153,-30.884 6.235,-35.755C6.318,-40.626 6.152,-46.446 6.152,-46.446L11.473,-70.721L14.466,-70.721L20.617,-39.13L26.936,0.11L33.587,0.443C33.587,0.443 34.584,-23.999 33.587,-28.988C32.589,-33.976 31.093,-38.797 31.093,-38.797L28.1,-71.553C28.1,-71.553 30.76,-83.192 26.604,-92.336C25.772,-93.999 0,-92.891 0,-92.891" style="fill:rgb(76,73,162);fill-rule:nonzero;"/>
                        </g>
                        <g transform="matrix(1,0,0,1,422.205,349.765)">
                            <path d="M0,48.455C-1.724,42.922 -5.07,19.515 -5.819,10.347C-5.978,8.404 -27.31,0.071 -27.31,0.071C-39.797,-0.245 -46.224,4.652 -46.224,4.652L-16.239,14.78C-16.239,28.304 -4.711,48.699 -4.711,48.699C-4.711,48.7 0,48.455 0,48.455" style="fill:rgb(47,47,142);fill-rule:nonzero;"/>
                        </g>
                        <g transform="matrix(1,0,0,1,396.482,380.258)">
                            <path d="M0,-13.027L-8.904,17.984L-3.817,19.092C-1.601,11.777 11.215,-13.293 11.563,-16.273C11.71,-17.544 11.619,-18.525 11.145,-18.923C10.667,-19.323 -3.705,-27.911 -7.88,-28.849C-13.472,-30.106 -21.775,-32.119 -21.775,-32.119C-21.775,-32.119 -26.456,-27.222 -25.544,-19.26C-24.632,-11.298 0,-13.027 0,-13.027" style="fill:rgb(76,73,162);fill-rule:nonzero;"/>
                        </g>
                        <g transform="matrix(1,0,0,1,384.466,351.955)">
                            <path d="M0,-39.253C0,-39.253 -9.758,-38.388 -10.202,-35.728C-10.645,-33.067 -5.546,-16.231 -5.546,-16.231L-10.503,-2.999C-10.503,-2.999 3.571,0.465 10.43,-2.119C11.081,-1.82 12.189,-16.009 12.189,-16.009L14.633,-22.98L17.731,-12.462L24.826,-2.485L29.481,-6.254L24.312,-15.341C24.312,-15.341 16.31,-33.603 14.185,-35.728C10.194,-39.718 0,-39.253 0,-39.253" style="fill:white;fill-rule:nonzero;"/>
                        </g>
                        <g transform="matrix(1,0,0,1,392.201,310.294)">
                            <path d="M0,3.11L-0.756,-6.925L-8.071,-6.925L-8.071,2.449C-8.998,2.552 -7.074,10.035 -1.179,10.035C-1.179,10.035 1.572,9.037 0,3.11" style="fill:rgb(230,119,80);fill-rule:nonzero;"/>
                        </g>
                        <g transform="matrix(1,0,0,1,377.371,351.591)">
                            <path d="M0,-21.186C0.854,-18.161 1.549,-15.867 1.549,-15.867L-3.409,-2.635C-3.409,-2.635 7.301,0 14.588,-1.042C13.938,-1.52 5.297,-7.342 4.874,-9.881C3.987,-15.202 0,-21.186 0,-21.186" style="fill:rgb(239,239,239);fill-rule:nonzero;"/>
                        </g>
                        <g transform="matrix(1,0,0,1,398.716,310.461)">
                            <path d="M0,-17.224C-0.619,-19.792 -4.627,-20.537 -10.962,-19.791C-15.271,-19.286 -16.239,-15.32 -16.359,-12.372C-16.424,-12.357 -16.488,-12.349 -16.554,-12.329C-18.041,-11.873 -19.101,-10.426 -19.02,-8.853C-18.978,-8.049 -18.694,-7.316 -18.164,-6.719C-17.604,-5.808 -16.65,-5.196 -15.558,-5.056C-15.252,-5.017 -14.951,-5.032 -14.656,-5.074C-12.862,-1.34 -9.571,3.313 -4.954,2.757C1.815,-1.976 0,-17.224 0,-17.224" style="fill:rgb(253,158,113);fill-rule:nonzero;"/>
                        </g>
                        <g transform="matrix(1,0,0,1,384.21,286.591)">
                            <path d="M0,13.409C0,13.409 -1.399,10.054 1.758,7.683C4.914,5.313 5.127,8.811 8.455,9.241C11.782,9.67 15.066,9.399 14.709,11.598C16.724,6.629 13.811,3.787 10.555,2.229C7.3,0.673 2.201,0 -1.341,2.956C-4.883,5.911 -4.403,13.01 -4.403,13.01C-2.068,11.881 -1.442,12.795 0,13.409" style="fill:rgb(32,18,81);fill-rule:nonzero;"/>
                        </g>
                        <g transform="matrix(1,0,0,1,382.869,305.625)">
                            <path d="M0,-16.078C0,-16.078 -2.94,-23.975 -8.51,-22.02C-14.08,-20.065 -11.568,-8.84 -12.183,-3.956C-12.798,0.928 -16.297,1.142 -17.553,-1.029C-19.882,3.398 -10.757,7.897 -7.786,3.642C-4.815,-0.613 -6.527,-11.395 -4.627,-12.495C-2.728,-13.594 -0.814,-12.166 -0.814,-12.166L0,-16.078Z" style="fill:rgb(32,18,81);fill-rule:nonzero;"/>
                        </g>
                        <g transform="matrix(1,0,0,1,374.486,348.084)">
                            <path d="M0,-32.743C-2.344,-31.39 -6.651,-15.241 -6.651,-12.581C-6.651,-9.921 14.117,3.325 14.117,3.325C14.117,3.325 15.075,0.056 17.292,-0.609C16.848,-0.831 1.773,-15.241 1.773,-15.241L5.764,-26.536C5.764,-26.536 5.764,-36.068 0,-32.743" style="fill:white;fill-rule:nonzero;"/>
                        </g>
                        <g transform="matrix(0.99953,-0.0306436,-0.0306436,-0.99953,386.946,353.98)">
                            <path d="M0.085,0.534L21.264,0.534L34.847,-4.984L11.552,-5.505L0.085,0.534Z" style="fill:rgb(48,197,204);fill-rule:nonzero;"/>
                        </g>
                        <g transform="matrix(-0.932464,-0.361264,-0.361264,0.932464,389.324,351.699)">
                            <path d="M-11.39,3.556L1.1,3.556L1.524,2.462L-11.833,2.15L-11.39,3.556Z" style="fill:rgb(11,155,155);fill-rule:nonzero;"/>
                        </g>
                        <g transform="matrix(0.343917,-0.939,-0.939,-0.343917,417.517,367.013)">
                            <path d="M0.918,20.418L21.263,20.418L28.057,-1.741L9.664,-1.159L0.918,20.418Z" style="fill:rgb(11,155,155);fill-rule:nonzero;"/>
                        </g>
                        <g transform="matrix(-0.447423,0.894323,0.894323,0.447423,416.117,348.185)">
                            <path d="M1.711,-2.77C3.25,-2.769 4.497,-1.912 4.497,-0.857C4.497,0.199 3.25,1.055 1.711,1.056C0.173,1.056 -1.074,0.199 -1.074,-0.857C-1.074,-1.913 0.174,-2.77 1.711,-2.77" style="fill:rgb(48,197,204);fill-rule:nonzero;"/>
                        </g>
                        <g transform="matrix(-0.990616,0.136674,0.136674,0.990616,397.517,354.618)">
                            <path d="M4.708,-7.86C4.708,-7.86 -2.728,-0.121 -1.788,0.197C-0.849,0.515 2.883,-0 4.708,-1.37C6.534,-2.742 8.392,-4.396 8.392,-4.396C8.392,-4.396 7.155,-7.974 4.708,-7.86" style="fill:rgb(253,158,113);fill-rule:nonzero;"/>
                        </g>
                        <g transform="matrix(1,0,0,1,392.887,404.939)">
                            <path d="M0,-7.14C1.495,-5.624 6.583,-3.327 9.089,-2.706C11.776,-2.04 11.306,0.216 9.342,0.216C5.486,0.216 -3.089,-0.267 -7.316,-0.267C-7.981,-2.262 -6.836,-4.93 -5.49,-6.728C-5.081,-7.277 -0.215,-7.356 0,-7.14" style="fill:rgb(32,18,81);fill-rule:nonzero;"/>
                        </g>
                        <g transform="matrix(1,0,0,1,423.259,404.939)">
                            <path d="M0,-7.14C1.495,-5.624 6.583,-3.327 9.089,-2.706C11.776,-2.04 11.306,0.216 9.342,0.216C5.486,0.216 -3.089,-0.267 -7.316,-0.267C-7.981,-2.262 -6.836,-4.93 -5.49,-6.728C-5.081,-7.277 -0.215,-7.356 0,-7.14" style="fill:rgb(32,18,81);fill-rule:nonzero;"/>
                        </g>
                    </g>
                </g>
            </g>
            <g transform="matrix(1.6252,0,0,1,-71.479,80.8914)">
                <g transform="matrix(22.1511,0,0,36,114.329,172.365)">
                    <path d="M0.441,-0L0.6,-0L0.385,-0.595L0.22,-0.595L0.005,-0L0.164,-0L0.197,-0.105L0.408,-0.105L0.441,-0ZM0.235,-0.226L0.303,-0.441L0.371,-0.226L0.235,-0.226Z" style="fill:rgb(40,101,113);fill-rule:nonzero;"/>
                </g>
                <g transform="matrix(22.1511,0,0,36,126.377,172.365)">
                    <path d="M0.337,0.008C0.456,0.008 0.559,-0.06 0.61,-0.158L0.482,-0.223C0.456,-0.17 0.403,-0.137 0.337,-0.137C0.246,-0.137 0.176,-0.206 0.176,-0.298C0.176,-0.39 0.246,-0.459 0.337,-0.459C0.403,-0.459 0.456,-0.425 0.482,-0.372L0.61,-0.438C0.559,-0.536 0.456,-0.603 0.337,-0.603C0.168,-0.603 0.032,-0.467 0.032,-0.298C0.032,-0.128 0.168,0.008 0.337,0.008Z" style="fill:rgb(40,101,113);fill-rule:nonzero;"/>
                </g>
                <g transform="matrix(22.1511,0,0,36,139.322,172.365)">
                    <path d="M0.449,-0.467L0.449,-0.595L0.083,-0.595L0.083,-0L0.449,-0L0.449,-0.128L0.23,-0.128L0.23,-0.233L0.415,-0.233L0.415,-0.362L0.23,-0.362L0.23,-0.467L0.449,-0.467Z" style="fill:rgb(40,101,113);fill-rule:nonzero;"/>
                </g>
                <g transform="matrix(22.1511,0,0,36,149.627,172.365)">
                    <path d="M0.23,-0.128L0.23,-0.595L0.083,-0.595L0.083,-0L0.421,-0L0.421,-0.128L0.23,-0.128Z" style="fill:rgb(40,101,113);fill-rule:nonzero;"/>
                </g>
                <g transform="matrix(22.1511,0,0,36,158.203,172.365)">
                    <path d="M0.449,-0.467L0.449,-0.595L0.083,-0.595L0.083,-0L0.449,-0L0.449,-0.128L0.23,-0.128L0.23,-0.233L0.415,-0.233L0.415,-0.362L0.23,-0.362L0.23,-0.467L0.449,-0.467Z" style="fill:rgb(40,101,113);fill-rule:nonzero;"/>
                </g>
                <g transform="matrix(22.1511,0,0,36,168.509,172.365)">
                    <path d="M0.406,-0.243C0.485,-0.264 0.526,-0.33 0.526,-0.413C0.526,-0.514 0.463,-0.595 0.345,-0.595L0.083,-0.595L0.083,-0L0.23,-0L0.23,-0.235L0.25,-0.235L0.4,-0L0.574,-0L0.406,-0.243ZM0.32,-0.355L0.23,-0.355L0.23,-0.467L0.32,-0.467C0.366,-0.467 0.385,-0.444 0.385,-0.411C0.385,-0.378 0.366,-0.355 0.32,-0.355Z" style="fill:rgb(40,101,113);fill-rule:nonzero;"/>
                </g>
                <g transform="matrix(22.1511,0,0,36,180.469,172.365)">
                    <path d="M0.449,-0.467L0.449,-0.595L0.083,-0.595L0.083,-0L0.449,-0L0.449,-0.128L0.23,-0.128L0.23,-0.233L0.415,-0.233L0.415,-0.362L0.23,-0.362L0.23,-0.467L0.449,-0.467Z" style="fill:rgb(40,101,113);fill-rule:nonzero;"/>
                </g>
                <g transform="matrix(22.1511,0,0,36,114.329,212.446)">
                    <path d="M0.258,0.008C0.372,0.008 0.469,-0.059 0.469,-0.18C0.469,-0.382 0.198,-0.346 0.198,-0.436C0.198,-0.46 0.217,-0.474 0.244,-0.474C0.278,-0.474 0.315,-0.451 0.351,-0.41L0.444,-0.506C0.398,-0.565 0.325,-0.603 0.247,-0.603C0.152,-0.603 0.05,-0.548 0.05,-0.426C0.05,-0.229 0.321,-0.261 0.321,-0.172C0.321,-0.147 0.3,-0.13 0.259,-0.13C0.207,-0.13 0.166,-0.159 0.145,-0.204L0.024,-0.128C0.064,-0.053 0.15,0.008 0.258,0.008Z" style="fill:rgb(40,101,113);fill-rule:nonzero;"/>
                </g>
                <g transform="matrix(22.1511,0,0,36,124.376,212.446)">
                    <path d="M0.32,0.008C0.463,0.008 0.574,-0.079 0.574,-0.189L0.574,-0.595L0.427,-0.595L0.427,-0.217C0.427,-0.164 0.38,-0.121 0.32,-0.121C0.262,-0.121 0.215,-0.164 0.215,-0.217L0.215,-0.595L0.067,-0.595L0.067,-0.189C0.067,-0.079 0.178,0.008 0.32,0.008Z" style="fill:rgb(40,101,113);fill-rule:nonzero;"/>
                </g>
                <g transform="matrix(22.1511,0,0,36,137.602,212.446)">
                    <path d="M0.441,-0L0.6,-0L0.385,-0.595L0.22,-0.595L0.005,-0L0.164,-0L0.197,-0.105L0.408,-0.105L0.441,-0ZM0.235,-0.226L0.303,-0.441L0.371,-0.226L0.235,-0.226Z" style="fill:rgb(40,101,113);fill-rule:nonzero;"/>
                </g>
                <g transform="matrix(22.1511,0,0,36,150.006,212.446)">
                    <path d="M0.258,0.008C0.372,0.008 0.469,-0.059 0.469,-0.18C0.469,-0.382 0.198,-0.346 0.198,-0.436C0.198,-0.46 0.217,-0.474 0.244,-0.474C0.278,-0.474 0.315,-0.451 0.351,-0.41L0.444,-0.506C0.398,-0.565 0.325,-0.603 0.247,-0.603C0.152,-0.603 0.05,-0.548 0.05,-0.426C0.05,-0.229 0.321,-0.261 0.321,-0.172C0.321,-0.147 0.3,-0.13 0.259,-0.13C0.207,-0.13 0.166,-0.159 0.145,-0.204L0.024,-0.128C0.064,-0.053 0.15,0.008 0.258,0.008Z" style="fill:rgb(40,101,113);fill-rule:nonzero;"/>
                </g>
                <g transform="matrix(22.1511,0,0,36,164.334,212.446)">
                    <path d="M0.435,-0.595L0.303,-0.193L0.171,-0.595L0.005,-0.595L0.22,-0L0.385,-0L0.6,-0.595L0.435,-0.595Z" style="fill:rgb(40,101,113);fill-rule:nonzero;"/>
                </g>
                <g transform="matrix(22.1511,0,0,36,176.738,212.446)">
                    <path d="M0.449,-0.467L0.449,-0.595L0.083,-0.595L0.083,-0L0.449,-0L0.449,-0.128L0.23,-0.128L0.23,-0.233L0.415,-0.233L0.415,-0.362L0.23,-0.362L0.23,-0.467L0.449,-0.467Z" style="fill:rgb(40,101,113);fill-rule:nonzero;"/>
                </g>
                <g transform="matrix(22.1511,0,0,36,187.044,212.446)">
                    <path d="M0.509,-0.595L0.509,-0.226L0.236,-0.595L0.083,-0.595L0.083,-0L0.23,-0L0.23,-0.371L0.502,-0L0.657,-0L0.657,-0.595L0.509,-0.595Z" style="fill:rgb(40,101,113);fill-rule:nonzero;"/>
                </g>
                <g transform="matrix(22.1511,0,0,36,202.422,212.446)">
                    <path d="M0.083,-0L0.263,-0C0.474,-0 0.584,-0.133 0.584,-0.298C0.584,-0.462 0.474,-0.595 0.263,-0.595L0.083,-0.595L0.083,-0ZM0.23,-0.128L0.23,-0.467L0.263,-0.467C0.395,-0.467 0.437,-0.393 0.437,-0.298C0.437,-0.202 0.395,-0.128 0.263,-0.128L0.23,-0.128Z" style="fill:rgb(40,101,113);fill-rule:nonzero;"/>
                </g>
                <g transform="matrix(22.1511,0,0,36,214.74,212.446)">
                    <path d="M0.441,-0L0.6,-0L0.385,-0.595L0.22,-0.595L0.005,-0L0.164,-0L0.197,-0.105L0.408,-0.105L0.441,-0ZM0.235,-0.226L0.303,-0.441L0.371,-0.226L0.235,-0.226Z" style="fill:rgb(40,101,113);fill-rule:nonzero;"/>
                </g>
                <g transform="matrix(22.1511,0,0,36,227.144,212.446)">
                    <path d="M0.258,0.008C0.372,0.008 0.469,-0.059 0.469,-0.18C0.469,-0.382 0.198,-0.346 0.198,-0.436C0.198,-0.46 0.217,-0.474 0.244,-0.474C0.278,-0.474 0.315,-0.451 0.351,-0.41L0.444,-0.506C0.398,-0.565 0.325,-0.603 0.247,-0.603C0.152,-0.603 0.05,-0.548 0.05,-0.426C0.05,-0.229 0.321,-0.261 0.321,-0.172C0.321,-0.147 0.3,-0.13 0.259,-0.13C0.207,-0.13 0.166,-0.159 0.145,-0.204L0.024,-0.128C0.064,-0.053 0.15,0.008 0.258,0.008Z" style="fill:rgb(40,101,113);fill-rule:nonzero;"/>
                </g>
                <g transform="matrix(10.2025,0,0,16.5812,114.329,239.707)">
                    <path d="M0.447,-0.203L0.636,-0.182C0.625,-0.142 0.608,-0.108 0.584,-0.079C0.561,-0.051 0.53,-0.028 0.493,-0.012C0.456,0.004 0.41,0.012 0.353,0.012C0.298,0.012 0.252,0.007 0.215,-0.004C0.178,-0.014 0.147,-0.03 0.121,-0.053C0.094,-0.076 0.074,-0.103 0.059,-0.134C0.044,-0.165 0.036,-0.206 0.036,-0.257C0.036,-0.31 0.045,-0.355 0.063,-0.39C0.077,-0.416 0.095,-0.44 0.118,-0.46C0.141,-0.481 0.165,-0.496 0.189,-0.506C0.228,-0.522 0.278,-0.53 0.338,-0.53C0.423,-0.53 0.488,-0.515 0.532,-0.485C0.576,-0.455 0.608,-0.41 0.625,-0.352L0.438,-0.327C0.433,-0.349 0.422,-0.366 0.406,-0.377C0.391,-0.388 0.37,-0.394 0.344,-0.394C0.311,-0.394 0.285,-0.382 0.264,-0.359C0.244,-0.335 0.234,-0.299 0.234,-0.252C0.234,-0.209 0.244,-0.177 0.264,-0.155C0.284,-0.133 0.31,-0.122 0.341,-0.122C0.367,-0.122 0.389,-0.128 0.407,-0.142C0.425,-0.155 0.438,-0.175 0.447,-0.203Z" style="fill:rgb(26,174,97);fill-rule:nonzero;"/>
                </g>
                <g transform="matrix(10.2025,0,0,16.5812,121.376,239.707)">
                    <path d="M0.062,-0.519L0.248,-0.519L0.248,-0.434C0.266,-0.47 0.284,-0.496 0.303,-0.51C0.323,-0.523 0.346,-0.53 0.374,-0.53C0.403,-0.53 0.435,-0.521 0.47,-0.503L0.409,-0.361C0.385,-0.371 0.367,-0.376 0.353,-0.376C0.327,-0.376 0.307,-0.365 0.292,-0.344C0.272,-0.313 0.262,-0.257 0.262,-0.174L0.262,-0L0.062,-0L0.062,-0.519Z" style="fill:rgb(26,174,97);fill-rule:nonzero;"/>
                </g>
                <g transform="matrix(10.2025,0,0,16.5812,126.311,239.707)">
                    <path d="M0.636,-0.21L0.237,-0.21C0.241,-0.178 0.25,-0.154 0.263,-0.139C0.282,-0.116 0.307,-0.105 0.338,-0.105C0.358,-0.105 0.376,-0.11 0.394,-0.12C0.405,-0.126 0.416,-0.137 0.429,-0.152L0.625,-0.134C0.595,-0.082 0.558,-0.045 0.516,-0.022C0.474,0 0.413,0.012 0.334,0.012C0.265,0.012 0.211,0.002 0.172,-0.017C0.132,-0.037 0.1,-0.067 0.074,-0.11C0.048,-0.152 0.035,-0.201 0.035,-0.258C0.035,-0.339 0.061,-0.405 0.113,-0.455C0.165,-0.505 0.237,-0.53 0.328,-0.53C0.402,-0.53 0.461,-0.519 0.504,-0.497C0.547,-0.474 0.58,-0.442 0.602,-0.399C0.625,-0.356 0.636,-0.301 0.636,-0.232L0.636,-0.21ZM0.434,-0.305C0.43,-0.344 0.419,-0.371 0.403,-0.388C0.386,-0.404 0.364,-0.413 0.336,-0.413C0.305,-0.413 0.28,-0.4 0.261,-0.375C0.249,-0.359 0.241,-0.336 0.238,-0.305L0.434,-0.305Z" style="fill:rgb(26,174,97);fill-rule:nonzero;"/>
                </g>
                <g transform="matrix(10.2025,0,0,16.5812,133.358,239.707)">
                    <path d="M0.025,-0.144L0.222,-0.163C0.23,-0.139 0.242,-0.122 0.256,-0.112C0.271,-0.102 0.291,-0.097 0.315,-0.097C0.342,-0.097 0.362,-0.103 0.377,-0.114C0.388,-0.123 0.394,-0.133 0.394,-0.146C0.394,-0.16 0.387,-0.171 0.372,-0.179C0.361,-0.185 0.332,-0.191 0.286,-0.2C0.217,-0.212 0.169,-0.223 0.142,-0.233C0.115,-0.243 0.093,-0.261 0.074,-0.285C0.056,-0.309 0.047,-0.337 0.047,-0.368C0.047,-0.402 0.057,-0.432 0.077,-0.457C0.097,-0.481 0.124,-0.5 0.159,-0.512C0.194,-0.524 0.24,-0.53 0.299,-0.53C0.361,-0.53 0.406,-0.526 0.436,-0.516C0.465,-0.507 0.49,-0.492 0.51,-0.472C0.529,-0.452 0.546,-0.425 0.559,-0.392L0.37,-0.373C0.365,-0.39 0.357,-0.402 0.346,-0.41C0.33,-0.42 0.311,-0.425 0.289,-0.425C0.267,-0.425 0.25,-0.421 0.24,-0.413C0.23,-0.405 0.225,-0.396 0.225,-0.384C0.225,-0.372 0.231,-0.362 0.244,-0.356C0.257,-0.349 0.285,-0.343 0.329,-0.338C0.395,-0.331 0.444,-0.32 0.477,-0.307C0.509,-0.293 0.533,-0.274 0.551,-0.25C0.568,-0.225 0.576,-0.198 0.576,-0.168C0.576,-0.138 0.567,-0.109 0.549,-0.081C0.531,-0.053 0.503,-0.03 0.464,-0.013C0.425,0.003 0.372,0.012 0.305,0.012C0.21,0.012 0.142,-0.002 0.102,-0.029C0.062,-0.056 0.036,-0.094 0.025,-0.144Z" style="fill:rgb(26,174,97);fill-rule:nonzero;"/>
                </g>
                <g transform="matrix(10.2025,0,0,16.5812,139.832,239.707)">
                    <path d="M0.447,-0.203L0.636,-0.182C0.625,-0.142 0.608,-0.108 0.584,-0.079C0.561,-0.051 0.53,-0.028 0.493,-0.012C0.456,0.004 0.41,0.012 0.353,0.012C0.298,0.012 0.252,0.007 0.215,-0.004C0.178,-0.014 0.147,-0.03 0.121,-0.053C0.094,-0.076 0.074,-0.103 0.059,-0.134C0.044,-0.165 0.036,-0.206 0.036,-0.257C0.036,-0.31 0.045,-0.355 0.063,-0.39C0.077,-0.416 0.095,-0.44 0.118,-0.46C0.141,-0.481 0.165,-0.496 0.189,-0.506C0.228,-0.522 0.278,-0.53 0.338,-0.53C0.423,-0.53 0.488,-0.515 0.532,-0.485C0.576,-0.455 0.608,-0.41 0.625,-0.352L0.438,-0.327C0.433,-0.349 0.422,-0.366 0.406,-0.377C0.391,-0.388 0.37,-0.394 0.344,-0.394C0.311,-0.394 0.285,-0.382 0.264,-0.359C0.244,-0.335 0.234,-0.299 0.234,-0.252C0.234,-0.209 0.244,-0.177 0.264,-0.155C0.284,-0.133 0.31,-0.122 0.341,-0.122C0.367,-0.122 0.389,-0.128 0.407,-0.142C0.425,-0.155 0.438,-0.175 0.447,-0.203ZM0.223,0.081L0.238,0.023C0.268,0.016 0.297,0.012 0.324,0.012C0.379,0.012 0.418,0.022 0.439,0.041C0.46,0.059 0.471,0.082 0.471,0.107C0.471,0.123 0.466,0.139 0.456,0.156C0.447,0.172 0.43,0.186 0.405,0.196C0.38,0.206 0.347,0.211 0.306,0.211C0.269,0.211 0.225,0.207 0.175,0.198L0.175,0.138C0.209,0.145 0.245,0.148 0.283,0.148C0.311,0.148 0.33,0.144 0.34,0.137C0.35,0.129 0.355,0.119 0.355,0.107C0.355,0.098 0.351,0.09 0.343,0.083C0.335,0.076 0.322,0.073 0.305,0.073C0.282,0.073 0.254,0.076 0.223,0.081Z" style="fill:rgb(26,174,97);fill-rule:nonzero;"/>
                </g>
                <g transform="matrix(10.2025,0,0,16.5812,146.879,239.707)">
                    <path d="M0.241,-0.351L0.051,-0.371C0.058,-0.404 0.069,-0.43 0.082,-0.449C0.096,-0.468 0.115,-0.485 0.141,-0.499C0.159,-0.509 0.184,-0.516 0.216,-0.522C0.248,-0.528 0.282,-0.53 0.319,-0.53C0.379,-0.53 0.427,-0.527 0.463,-0.52C0.499,-0.514 0.529,-0.5 0.553,-0.479C0.57,-0.464 0.583,-0.443 0.593,-0.416C0.603,-0.389 0.608,-0.364 0.608,-0.339L0.608,-0.11C0.608,-0.086 0.609,-0.067 0.613,-0.053C0.616,-0.039 0.622,-0.021 0.633,-0L0.446,-0C0.439,-0.013 0.434,-0.024 0.432,-0.031C0.429,-0.038 0.427,-0.049 0.425,-0.063C0.399,-0.038 0.373,-0.021 0.347,-0.01C0.312,0.005 0.271,0.012 0.225,0.012C0.163,0.012 0.116,-0.003 0.084,-0.031C0.052,-0.06 0.036,-0.095 0.036,-0.137C0.036,-0.177 0.047,-0.209 0.07,-0.234C0.093,-0.26 0.136,-0.279 0.198,-0.291C0.273,-0.306 0.321,-0.316 0.343,-0.323C0.365,-0.329 0.389,-0.336 0.414,-0.346C0.414,-0.371 0.409,-0.388 0.398,-0.397C0.388,-0.407 0.371,-0.412 0.345,-0.412C0.313,-0.412 0.288,-0.407 0.272,-0.396C0.259,-0.388 0.249,-0.373 0.241,-0.351ZM0.414,-0.246C0.386,-0.236 0.358,-0.228 0.328,-0.22C0.288,-0.209 0.262,-0.199 0.251,-0.188C0.24,-0.178 0.235,-0.166 0.235,-0.152C0.235,-0.136 0.24,-0.123 0.251,-0.114C0.262,-0.104 0.278,-0.099 0.299,-0.099C0.321,-0.099 0.342,-0.104 0.361,-0.115C0.38,-0.125 0.394,-0.139 0.402,-0.154C0.41,-0.17 0.414,-0.19 0.414,-0.214L0.414,-0.246Z" style="fill:rgb(26,174,97);fill-rule:nonzero;"/>
                </g>
                <g transform="matrix(10.2025,0,0,16.5812,157.57,239.707)">
                    <path d="M0.636,-0.21L0.237,-0.21C0.241,-0.178 0.25,-0.154 0.263,-0.139C0.282,-0.116 0.307,-0.105 0.338,-0.105C0.358,-0.105 0.376,-0.11 0.394,-0.12C0.405,-0.126 0.416,-0.137 0.429,-0.152L0.625,-0.134C0.595,-0.082 0.558,-0.045 0.516,-0.022C0.474,0 0.413,0.012 0.334,0.012C0.265,0.012 0.211,0.002 0.172,-0.017C0.132,-0.037 0.1,-0.067 0.074,-0.11C0.048,-0.152 0.035,-0.201 0.035,-0.258C0.035,-0.339 0.061,-0.405 0.113,-0.455C0.165,-0.505 0.237,-0.53 0.328,-0.53C0.402,-0.53 0.461,-0.519 0.504,-0.497C0.547,-0.474 0.58,-0.442 0.602,-0.399C0.625,-0.356 0.636,-0.301 0.636,-0.232L0.636,-0.21ZM0.434,-0.305C0.43,-0.344 0.419,-0.371 0.403,-0.388C0.386,-0.404 0.364,-0.413 0.336,-0.413C0.305,-0.413 0.28,-0.4 0.261,-0.375C0.249,-0.359 0.241,-0.336 0.238,-0.305L0.434,-0.305Z" style="fill:rgb(26,174,97);fill-rule:nonzero;"/>
                </g>
                <g transform="matrix(10.2025,0,0,16.5812,164.617,239.707)">
                    <path d="M0.062,-0.519L0.247,-0.519L0.247,-0.443C0.274,-0.474 0.301,-0.497 0.328,-0.51C0.355,-0.524 0.388,-0.53 0.427,-0.53C0.468,-0.53 0.501,-0.523 0.525,-0.508C0.549,-0.494 0.569,-0.472 0.584,-0.443C0.615,-0.477 0.644,-0.5 0.669,-0.512C0.695,-0.524 0.727,-0.53 0.764,-0.53C0.82,-0.53 0.863,-0.514 0.895,-0.481C0.926,-0.448 0.941,-0.396 0.941,-0.326L0.941,-0L0.742,-0L0.742,-0.295C0.742,-0.319 0.738,-0.336 0.729,-0.348C0.715,-0.366 0.699,-0.375 0.679,-0.375C0.656,-0.375 0.637,-0.366 0.622,-0.349C0.608,-0.332 0.601,-0.305 0.601,-0.268L0.601,-0L0.402,-0L0.402,-0.286C0.402,-0.308 0.401,-0.324 0.398,-0.332C0.394,-0.345 0.386,-0.356 0.376,-0.364C0.365,-0.372 0.353,-0.375 0.339,-0.375C0.316,-0.375 0.297,-0.367 0.283,-0.35C0.268,-0.332 0.261,-0.304 0.261,-0.265L0.261,-0L0.062,-0L0.062,-0.519Z" style="fill:rgb(26,174,97);fill-rule:nonzero;"/>
                </g>
                <g transform="matrix(10.2025,0,0,16.5812,178.706,239.707)">
                    <path d="M0.001,-0.519L0.208,-0.519L0.309,-0.19L0.413,-0.519L0.614,-0.519L0.393,-0L0.217,-0L0.001,-0.519Z" style="fill:rgb(26,174,97);fill-rule:nonzero;"/>
                </g>
                <g transform="matrix(10.2025,0,0,16.5812,184.916,239.707)">
                    <path d="M0.036,-0.258C0.036,-0.337 0.062,-0.402 0.116,-0.453C0.169,-0.505 0.241,-0.53 0.332,-0.53C0.436,-0.53 0.514,-0.5 0.567,-0.44C0.61,-0.391 0.631,-0.332 0.631,-0.261C0.631,-0.181 0.605,-0.116 0.552,-0.065C0.499,-0.014 0.426,0.012 0.333,0.012C0.249,0.012 0.182,-0.009 0.13,-0.052C0.067,-0.104 0.036,-0.173 0.036,-0.258ZM0.235,-0.258C0.235,-0.212 0.244,-0.178 0.263,-0.156C0.282,-0.134 0.305,-0.123 0.333,-0.123C0.362,-0.123 0.386,-0.133 0.404,-0.155C0.422,-0.177 0.432,-0.212 0.432,-0.26C0.432,-0.305 0.422,-0.339 0.404,-0.361C0.385,-0.383 0.362,-0.394 0.335,-0.394C0.306,-0.394 0.282,-0.382 0.263,-0.36C0.244,-0.338 0.235,-0.304 0.235,-0.258Z" style="fill:rgb(26,174,97);fill-rule:nonzero;"/>
                </g>
                <g transform="matrix(10.2025,0,0,16.5812,191.963,239.707)">
                    <rect x="0.067" y="-0.716" width="0.199" height="0.716" style="fill:rgb(26,174,97);fill-rule:nonzero;"/>
                </g>
                <g transform="matrix(10.2025,0,0,16.5812,195.603,239.707)">
                    <path d="M0.606,-0L0.421,-0L0.421,-0.084C0.393,-0.049 0.365,-0.025 0.337,-0.01C0.309,0.004 0.274,0.012 0.233,0.012C0.179,0.012 0.136,-0.005 0.105,-0.037C0.074,-0.07 0.058,-0.12 0.058,-0.188L0.058,-0.519L0.258,-0.519L0.258,-0.233C0.258,-0.201 0.264,-0.178 0.276,-0.164C0.288,-0.15 0.305,-0.144 0.327,-0.144C0.35,-0.144 0.37,-0.153 0.385,-0.171C0.4,-0.189 0.408,-0.222 0.408,-0.269L0.408,-0.519L0.606,-0.519L0.606,-0Z" style="fill:rgb(26,174,97);fill-rule:nonzero;"/>
                </g>
                <g transform="matrix(10.2025,0,0,16.5812,202.65,239.707)">
                    <path d="M0.062,-0.519L0.247,-0.519L0.247,-0.443C0.274,-0.474 0.301,-0.497 0.328,-0.51C0.355,-0.524 0.388,-0.53 0.427,-0.53C0.468,-0.53 0.501,-0.523 0.525,-0.508C0.549,-0.494 0.569,-0.472 0.584,-0.443C0.615,-0.477 0.644,-0.5 0.669,-0.512C0.695,-0.524 0.727,-0.53 0.764,-0.53C0.82,-0.53 0.863,-0.514 0.895,-0.481C0.926,-0.448 0.941,-0.396 0.941,-0.326L0.941,-0L0.742,-0L0.742,-0.295C0.742,-0.319 0.738,-0.336 0.729,-0.348C0.715,-0.366 0.699,-0.375 0.679,-0.375C0.656,-0.375 0.637,-0.366 0.622,-0.349C0.608,-0.332 0.601,-0.305 0.601,-0.268L0.601,-0L0.402,-0L0.402,-0.286C0.402,-0.308 0.401,-0.324 0.398,-0.332C0.394,-0.345 0.386,-0.356 0.376,-0.364C0.365,-0.372 0.353,-0.375 0.339,-0.375C0.316,-0.375 0.297,-0.367 0.283,-0.35C0.268,-0.332 0.261,-0.304 0.261,-0.265L0.261,-0L0.062,-0L0.062,-0.519Z" style="fill:rgb(26,174,97);fill-rule:nonzero;"/>
                </g>
                <g transform="matrix(10.2025,0,0,16.5812,213.094,239.707)">
                    <path d="M0.636,-0.21L0.237,-0.21C0.241,-0.178 0.25,-0.154 0.263,-0.139C0.282,-0.116 0.307,-0.105 0.338,-0.105C0.358,-0.105 0.376,-0.11 0.394,-0.12C0.405,-0.126 0.416,-0.137 0.429,-0.152L0.625,-0.134C0.595,-0.082 0.558,-0.045 0.516,-0.022C0.474,0 0.413,0.012 0.334,0.012C0.265,0.012 0.211,0.002 0.172,-0.017C0.132,-0.037 0.1,-0.067 0.074,-0.11C0.048,-0.152 0.035,-0.201 0.035,-0.258C0.035,-0.339 0.061,-0.405 0.113,-0.455C0.165,-0.505 0.237,-0.53 0.328,-0.53C0.402,-0.53 0.461,-0.519 0.504,-0.497C0.547,-0.474 0.58,-0.442 0.602,-0.399C0.625,-0.356 0.636,-0.301 0.636,-0.232L0.636,-0.21ZM0.434,-0.305C0.43,-0.344 0.419,-0.371 0.403,-0.388C0.386,-0.404 0.364,-0.413 0.336,-0.413C0.305,-0.413 0.28,-0.4 0.261,-0.375C0.249,-0.359 0.241,-0.336 0.238,-0.305L0.434,-0.305Z" style="fill:rgb(26,174,97);fill-rule:nonzero;"/>
                </g>
            </g>
        </g>
    </g>
</svg>