<?xml version="1.0" encoding="UTF-8" standalone="no"?>
<!DOCTYPE svg PUBLIC "-//W3C//DTD SVG 1.1//EN" "http://www.w3.org/Graphics/SVG/1.1/DTD/svg11.dtd">
<svg width="100%" height="100%" viewBox="0 0 830 240" version="1.1" xmlns="http://www.w3.org/2000/svg" xmlns:xlink="http://www.w3.org/1999/xlink" xml:space="preserve" xmlns:serif="http://www.serif.com/" style="fill-rule:evenodd;clip-rule:evenodd;stroke-linejoin:round;stroke-miterlimit:2;">
    <g transform="matrix(1,0,0,1,-1307.7,-610.125)">
        <g transform="matrix(1,0,0,1,1182.6,0)">
            <g id="Slogan" transform="matrix(2.91511,0,0,2.91511,123.35,801.628)">
                <path d="M5.99,12.74C8.07,12.74 9.89,11.55 10.78,9.8L8.47,8.63C8.02,9.54 7.11,10.12 5.99,10.12C4.39,10.12 3.2,8.94 3.2,7.35C3.2,5.76 4.39,4.59 5.99,4.59C7.11,4.59 8.02,5.16 8.47,6.07L10.78,4.9C9.89,3.15 8.07,1.96 5.99,1.96C2.99,1.96 0.6,4.38 0.6,7.35C0.6,10.33 2.99,12.74 5.99,12.74ZM18.01,8.44C19.22,8.02 20.05,6.84 20.05,5.41C20.05,3.59 18.71,2.1 16.84,2.1L12.16,2.1L12.16,12.6L14.84,12.6L14.84,8.75L15.45,8.75L17.9,12.6L20.91,12.6L18.01,8.44ZM16.4,6.6L14.84,6.6L14.84,4.43L16.4,4.43C17.03,4.43 17.48,4.88 17.48,5.51C17.48,6.14 17.03,6.6 16.4,6.6ZM28.32,4.43L28.32,2.1L21.81,2.1L21.81,12.6L28.32,12.6L28.32,10.27L24.48,10.27L24.48,8.51L27.72,8.51L27.72,6.2L24.48,6.2L24.48,4.43L28.32,4.43ZM33.3,12.74C35.32,12.74 37.05,11.57 37.05,9.56C37.05,5.57 32.29,6.56 32.29,4.97C32.29,4.52 32.64,4.31 33.06,4.31C33.58,4.31 34.16,4.62 34.72,5.22L36.47,3.52C35.65,2.55 34.41,1.96 33.09,1.96C31.43,1.96 29.59,2.92 29.59,5.16C29.59,8.8 34.37,7.93 34.37,9.52C34.37,9.94 34.02,10.24 33.34,10.24C32.43,10.24 31.69,9.75 31.33,8.96L29.14,10.33C29.84,11.66 31.38,12.74 33.3,12.74ZM43.42,10.12C41.83,10.12 40.64,8.94 40.64,7.35C40.64,5.76 41.83,4.59 43.42,4.59C44.54,4.59 45.45,5.16 45.9,6.07L48.21,4.9C47.32,3.15 45.5,1.96 43.42,1.96C40.43,1.96 38.03,4.38 38.03,7.35C38.03,10.12 40.09,12.39 42.79,12.71L42.11,13.91L42.96,14.4C43.52,14.09 43.96,14.21 43.96,14.65C43.96,14.91 43.75,15.12 43.51,15.12C43.28,15.12 43.03,14.96 42.93,14.75L41.84,15.1C42.02,15.73 42.75,16.24 43.51,16.24C44.38,16.24 45.08,15.54 45.08,14.65C45.08,13.81 44.4,13.23 43.52,13.37L43.94,12.72C45.8,12.53 47.39,11.41 48.21,9.8L45.9,8.63C45.45,9.54 44.54,10.12 43.42,10.12ZM56.04,12.6L58.91,12.6L55.11,2.1L52.12,2.1L48.32,12.6L51.21,12.6L51.78,10.76L55.46,10.76L56.04,12.6ZM52.47,8.59L53.62,4.88L54.79,8.59L52.47,8.59ZM70.37,4.43L70.37,2.1L63.86,2.1L63.86,12.6L70.37,12.6L70.37,10.27L66.54,10.27L66.54,8.51L69.77,8.51L69.77,6.2L66.54,6.2L66.54,4.43L70.37,4.43ZM81.04,2.1L77.93,8.79L74.83,2.1L71.93,2.1L71.93,12.6L74.6,12.6L74.6,6.95L77.21,12.6L78.65,12.6L81.25,6.98L81.25,12.6L83.93,12.6L83.93,2.1L81.04,2.1ZM96.37,2.1L94.08,9.08L91.79,2.1L88.78,2.1L92.58,12.6L95.57,12.6L99.37,2.1L96.37,2.1ZM105.05,12.74C108.03,12.74 110.44,10.33 110.44,7.35C110.44,4.38 108.03,1.96 105.05,1.96C102.06,1.96 99.66,4.38 99.66,7.35C99.66,10.33 102.06,12.74 105.05,12.74ZM105.05,10.12C103.46,10.12 102.27,8.94 102.27,7.35C102.27,5.76 103.46,4.59 105.05,4.59C106.63,4.59 107.82,5.76 107.82,7.35C107.82,8.94 106.63,10.12 105.05,10.12ZM114.66,10.27L114.66,2.1L111.98,2.1L111.98,12.6L118,12.6L118,10.27L114.66,10.27ZM123.41,12.74C125.93,12.74 127.91,11.22 127.91,9.26L127.91,2.1L125.23,2.1L125.23,8.75C125.23,9.68 124.43,10.41 123.41,10.41C122.4,10.41 121.59,9.68 121.59,8.75L121.59,2.1L118.91,2.1L118.91,9.26C118.91,11.22 120.89,12.74 123.41,12.74ZM138.9,2.1L135.78,8.79L132.69,2.1L129.78,2.1L129.78,12.6L132.46,12.6L132.46,6.95L135.07,12.6L136.5,12.6L139.11,6.98L139.11,12.6L141.79,12.6L141.79,2.1L138.9,2.1ZM150.31,4.43L150.31,2.1L143.8,2.1L143.8,12.6L150.31,12.6L150.31,10.27L146.48,10.27L146.48,8.51L149.71,8.51L149.71,6.2L146.48,6.2L146.48,4.43L150.31,4.43Z" style="fill:rgb(136,70,180);fill-rule:nonzero;"/>
            </g>
            <g id="iShopee" transform="matrix(5.72089,0,0,5.72089,-200.422,-73.9816)">
                <g transform="matrix(42.1546,0,0,42.1546,54.4496,150.351)">
                    <rect x="0.066" y="-0.434" width="0.157" height="0.434" style="fill:rgb(239,129,0);"/>
                </g>
                <g transform="matrix(42.1546,0,0,42.1546,66.6144,150.351)">
                    <path d="M0.258,0.008C0.372,0.008 0.469,-0.059 0.469,-0.18C0.469,-0.382 0.198,-0.346 0.198,-0.436C0.198,-0.46 0.217,-0.474 0.244,-0.474C0.278,-0.474 0.315,-0.451 0.351,-0.41L0.444,-0.506C0.398,-0.565 0.325,-0.603 0.247,-0.603C0.152,-0.603 0.05,-0.548 0.05,-0.426C0.05,-0.229 0.321,-0.261 0.321,-0.172C0.321,-0.147 0.3,-0.13 0.259,-0.13C0.207,-0.13 0.166,-0.159 0.145,-0.204L0.024,-0.128C0.064,-0.053 0.15,0.008 0.258,0.008Z" style="fill:rgb(239,129,0);fill-rule:nonzero;"/>
                </g>
                <g transform="matrix(42.1546,0,0,42.1546,87.6299,150.351)">
                    <path d="M0.352,-0.443C0.299,-0.443 0.253,-0.417 0.222,-0.375L0.222,-0.73L0.066,-0.73L0.066,-0L0.222,-0L0.222,-0.236C0.222,-0.272 0.25,-0.307 0.291,-0.307C0.326,-0.307 0.35,-0.279 0.35,-0.246L0.35,-0L0.506,-0L0.506,-0.274C0.506,-0.372 0.438,-0.443 0.352,-0.443Z" style="fill:rgb(239,129,0);fill-rule:nonzero;"/>
                </g>
                <g transform="matrix(42.1546,0,0,42.1546,111.26,150.351)">
                    <path d="M0.271,0.009C0.421,0.009 0.517,-0.086 0.517,-0.217C0.517,-0.349 0.421,-0.443 0.271,-0.443C0.119,-0.443 0.025,-0.349 0.025,-0.217C0.025,-0.086 0.119,0.009 0.271,0.009ZM0.271,-0.128C0.218,-0.128 0.181,-0.166 0.181,-0.217C0.181,-0.268 0.218,-0.306 0.271,-0.307C0.323,-0.306 0.36,-0.268 0.36,-0.217C0.36,-0.166 0.323,-0.128 0.271,-0.128Z" style="fill:rgb(239,129,0);fill-rule:nonzero;"/>
                </g>
                <g transform="matrix(42.1546,0,0,42.1546,134.107,150.351)">
                    <path d="M0.338,-0.443C0.291,-0.443 0.252,-0.428 0.222,-0.401L0.222,-0.433L0.066,-0.434L0.066,0.262L0.222,0.262L0.222,-0.033C0.252,-0.006 0.291,0.009 0.338,0.009C0.456,0.009 0.549,-0.09 0.549,-0.217C0.549,-0.344 0.456,-0.443 0.338,-0.443ZM0.303,-0.128C0.253,-0.128 0.213,-0.166 0.213,-0.217C0.213,-0.268 0.253,-0.307 0.303,-0.307C0.353,-0.307 0.392,-0.268 0.392,-0.217C0.392,-0.166 0.353,-0.128 0.303,-0.128Z" style="fill:rgb(239,129,0);fill-rule:nonzero;"/>
                </g>
                <g transform="matrix(42.1546,0,0,42.1546,158.333,150.351)">
                    <path d="M0.503,-0.218C0.503,-0.356 0.412,-0.444 0.268,-0.444C0.124,-0.444 0.026,-0.356 0.026,-0.217C0.026,-0.08 0.122,0.009 0.272,0.009C0.398,0.009 0.478,-0.055 0.497,-0.148L0.348,-0.148C0.339,-0.12 0.313,-0.103 0.27,-0.103C0.212,-0.103 0.188,-0.135 0.183,-0.192L0.503,-0.192L0.503,-0.218ZM0.27,-0.329C0.311,-0.329 0.333,-0.312 0.344,-0.28L0.191,-0.28C0.203,-0.311 0.227,-0.329 0.27,-0.329Z" style="fill:rgb(239,129,0);fill-rule:nonzero;"/>
                </g>
                <g transform="matrix(42.1546,0,0,42.1546,180.728,150.351)">
                    <path d="M0.503,-0.218C0.503,-0.356 0.412,-0.444 0.268,-0.444C0.124,-0.444 0.026,-0.356 0.026,-0.217C0.026,-0.08 0.122,0.009 0.272,0.009C0.398,0.009 0.478,-0.055 0.497,-0.148L0.348,-0.148C0.339,-0.12 0.313,-0.103 0.27,-0.103C0.212,-0.103 0.188,-0.135 0.183,-0.192L0.503,-0.192L0.503,-0.218ZM0.27,-0.329C0.311,-0.329 0.333,-0.312 0.344,-0.28L0.191,-0.28C0.203,-0.311 0.227,-0.329 0.27,-0.329Z" style="fill:rgb(239,129,0);fill-rule:nonzero;"/>
                </g>
            </g>
            <g transform="matrix(241.162,0,0,241.162,111.079,786.161)">
                <path d="M0.144,-0.497C0.191,-0.497 0.231,-0.536 0.231,-0.583C0.231,-0.63 0.191,-0.668 0.144,-0.668C0.097,-0.668 0.058,-0.63 0.058,-0.583C0.058,-0.536 0.097,-0.497 0.144,-0.497Z" style="fill:rgb(112,66,143);"/>
            </g>
        </g>
    </g>
</svg>