<?xml version="1.0" encoding="UTF-8" standalone="no"?>
<!DOCTYPE svg PUBLIC "-//W3C//DTD SVG 1.1//EN" "http://www.w3.org/Graphics/SVG/1.1/DTD/svg11.dtd">
<svg width="100%" height="100%" viewBox="0 0 830 240" version="1.1" xmlns="http://www.w3.org/2000/svg" xmlns:xlink="http://www.w3.org/1999/xlink" xml:space="preserve" xmlns:serif="http://www.serif.com/" style="fill-rule:evenodd;clip-rule:evenodd;stroke-linejoin:round;stroke-miterlimit:2;">
    <g transform="matrix(1,0,0,1,-545.099,-610.125)">
        <g id="Logo-white" transform="matrix(4.67637,0,0,1.33407,114.06,530.218)">
            <g id="Slogan" transform="matrix(0.62337,0,0,2.18512,91.7997,203.445)">
                <path d="M5.99,12.74C8.07,12.74 9.89,11.55 10.78,9.8L8.47,8.63C8.02,9.54 7.11,10.12 5.99,10.12C4.39,10.12 3.2,8.94 3.2,7.35C3.2,5.76 4.39,4.59 5.99,4.59C7.11,4.59 8.02,5.16 8.47,6.07L10.78,4.9C9.89,3.15 8.07,1.96 5.99,1.96C2.99,1.96 0.6,4.38 0.6,7.35C0.6,10.33 2.99,12.74 5.99,12.74ZM18.01,8.44C19.22,8.02 20.05,6.84 20.05,5.41C20.05,3.59 18.71,2.1 16.84,2.1L12.16,2.1L12.16,12.6L14.84,12.6L14.84,8.75L15.45,8.75L17.9,12.6L20.91,12.6L18.01,8.44ZM16.4,6.6L14.84,6.6L14.84,4.43L16.4,4.43C17.03,4.43 17.48,4.88 17.48,5.51C17.48,6.14 17.03,6.6 16.4,6.6ZM28.32,4.43L28.32,2.1L21.81,2.1L21.81,12.6L28.32,12.6L28.32,10.27L24.48,10.27L24.48,8.51L27.72,8.51L27.72,6.2L24.48,6.2L24.48,4.43L28.32,4.43ZM33.3,12.74C35.32,12.74 37.05,11.57 37.05,9.56C37.05,5.57 32.29,6.56 32.29,4.97C32.29,4.52 32.64,4.31 33.06,4.31C33.58,4.31 34.16,4.62 34.72,5.22L36.47,3.52C35.65,2.55 34.41,1.96 33.09,1.96C31.43,1.96 29.59,2.92 29.59,5.16C29.59,8.8 34.37,7.93 34.37,9.52C34.37,9.94 34.02,10.24 33.34,10.24C32.43,10.24 31.69,9.75 31.33,8.96L29.14,10.33C29.84,11.66 31.38,12.74 33.3,12.74ZM43.42,10.12C41.83,10.12 40.64,8.94 40.64,7.35C40.64,5.76 41.83,4.59 43.42,4.59C44.54,4.59 45.45,5.16 45.9,6.07L48.21,4.9C47.32,3.15 45.5,1.96 43.42,1.96C40.43,1.96 38.03,4.38 38.03,7.35C38.03,10.12 40.09,12.39 42.79,12.71L42.11,13.91L42.96,14.4C43.52,14.09 43.96,14.21 43.96,14.65C43.96,14.91 43.75,15.12 43.51,15.12C43.28,15.12 43.03,14.96 42.93,14.75L41.84,15.1C42.02,15.73 42.75,16.24 43.51,16.24C44.38,16.24 45.08,15.54 45.08,14.65C45.08,13.81 44.4,13.23 43.52,13.37L43.94,12.72C45.8,12.53 47.39,11.41 48.21,9.8L45.9,8.63C45.45,9.54 44.54,10.12 43.42,10.12ZM56.04,12.6L58.91,12.6L55.11,2.1L52.12,2.1L48.32,12.6L51.21,12.6L51.78,10.76L55.46,10.76L56.04,12.6ZM52.47,8.59L53.62,4.88L54.79,8.59L52.47,8.59ZM70.37,4.43L70.37,2.1L63.86,2.1L63.86,12.6L70.37,12.6L70.37,10.27L66.54,10.27L66.54,8.51L69.77,8.51L69.77,6.2L66.54,6.2L66.54,4.43L70.37,4.43ZM81.04,2.1L77.93,8.79L74.83,2.1L71.93,2.1L71.93,12.6L74.6,12.6L74.6,6.95L77.21,12.6L78.65,12.6L81.25,6.98L81.25,12.6L83.93,12.6L83.93,2.1L81.04,2.1ZM96.37,2.1L94.08,9.08L91.79,2.1L88.78,2.1L92.58,12.6L95.57,12.6L99.37,2.1L96.37,2.1ZM105.05,12.74C108.03,12.74 110.44,10.33 110.44,7.35C110.44,4.38 108.03,1.96 105.05,1.96C102.06,1.96 99.66,4.38 99.66,7.35C99.66,10.33 102.06,12.74 105.05,12.74ZM105.05,10.12C103.46,10.12 102.27,8.94 102.27,7.35C102.27,5.76 103.46,4.59 105.05,4.59C106.63,4.59 107.82,5.76 107.82,7.35C107.82,8.94 106.63,10.12 105.05,10.12ZM114.66,10.27L114.66,2.1L111.98,2.1L111.98,12.6L118,12.6L118,10.27L114.66,10.27ZM123.41,12.74C125.93,12.74 127.91,11.22 127.91,9.26L127.91,2.1L125.23,2.1L125.23,8.75C125.23,9.68 124.43,10.41 123.41,10.41C122.4,10.41 121.59,9.68 121.59,8.75L121.59,2.1L118.91,2.1L118.91,9.26C118.91,11.22 120.89,12.74 123.41,12.74ZM138.9,2.1L135.78,8.79L132.69,2.1L129.78,2.1L129.78,12.6L132.46,12.6L132.46,6.95L135.07,12.6L136.5,12.6L139.11,6.98L139.11,12.6L141.79,12.6L141.79,2.1L138.9,2.1ZM150.31,4.43L150.31,2.1L143.8,2.1L143.8,12.6L150.31,12.6L150.31,10.27L146.48,10.27L146.48,8.51L149.71,8.51L149.71,6.2L146.48,6.2L146.48,4.43L150.31,4.43Z" style="fill:rgb(136,70,180);fill-rule:nonzero;"/>
            </g>
            <g id="iShopee" transform="matrix(0.213841,0,0,0.749585,-24.3908,-397.443)">
                <path d="M1068.28,679.365C1057.09,679.365 1047.66,683.013 1040.36,689.369L1040.36,681.72L1002.69,681.485L1002.69,849.27L1040.36,849.27L1040.36,778.269C1047.66,784.624 1057.09,788.273 1068.28,788.273C1096.66,788.273 1119.26,764.38 1119.26,733.768C1119.26,703.141 1096.66,679.365 1068.28,679.365ZM1246.78,733.522C1246.78,700.196 1224.65,679.012 1190.03,679.012C1155.18,679.012 1131.63,700.196 1131.63,733.757C1131.63,766.971 1154.71,788.273 1191.09,788.273C1221.35,788.273 1240.54,772.974 1245.25,750.363L1209.34,750.363C1207.22,757.316 1200.86,761.44 1190.5,761.44C1176.49,761.44 1170.71,753.663 1169.54,739.876L1246.78,739.876L1246.78,733.522ZM1374.9,733.522C1374.9,700.196 1352.77,679.012 1318.15,679.012C1283.29,679.012 1259.75,700.196 1259.75,733.757C1259.75,766.971 1282.82,788.273 1319.2,788.273C1349.47,788.273 1368.66,772.974 1373.37,750.363L1337.45,750.363C1335.34,757.316 1328.98,761.44 1318.61,761.44C1304.6,761.44 1298.83,753.663 1297.65,739.876L1374.9,739.876L1374.9,733.522ZM921.435,788.273C957.705,788.273 980.776,765.439 980.776,733.76C980.776,702.081 957.705,679.365 921.435,679.365C884.812,679.365 862.094,702.081 862.094,733.76C862.094,765.439 884.812,788.273 921.435,788.273ZM662.846,788.038C690.285,788.038 713.709,772.03 713.709,742.715C713.709,694.073 648.473,702.671 648.473,681.118C648.473,675.347 653.067,671.932 659.547,671.932C667.794,671.932 676.63,677.467 685.224,687.242L707.824,664.046C696.759,649.922 678.986,640.741 660.136,640.741C637.408,640.741 612.69,654.041 612.69,683.356C612.69,730.819 678.162,723.164 678.162,744.599C678.162,750.606 672.978,754.728 663.199,754.728C650.593,754.728 640.704,747.897 635.525,736.944L606.449,755.316C615.986,773.325 636.82,788.038 662.846,788.038ZM546.983,786.154L584.767,786.154L584.767,681.485L546.983,681.485L546.983,786.154ZM805.69,679.365C793.084,679.365 782.01,685.605 774.47,695.613L774.47,610.125L736.803,610.125L736.803,786.154L774.47,786.154L774.47,729.168C774.47,720.682 781.303,712.086 790.964,712.086C799.564,712.086 805.337,718.916 805.337,726.805L805.337,786.154L843.003,786.154L843.003,719.976C843.003,696.555 826.524,679.365 805.69,679.365ZM921.435,755.317C908.713,755.199 899.761,746.129 899.761,733.76C899.761,721.51 908.713,712.44 921.435,712.086C934.039,712.44 942.992,721.51 942.992,733.76C942.992,746.129 934.039,755.199 921.435,755.317ZM1059.91,755.317C1047.78,755.317 1038.24,746.011 1038.24,733.76C1038.24,721.628 1047.78,712.086 1059.91,712.086C1071.93,712.086 1081.35,721.628 1081.35,733.76C1081.35,746.011 1071.93,755.317 1059.91,755.317ZM1190.5,706.905C1200.27,706.905 1205.69,711.031 1208.4,718.577L1171.54,718.577C1174.37,711.267 1180.13,706.905 1190.5,706.905ZM1318.61,706.905C1328.39,706.905 1333.81,711.031 1336.51,718.577L1299.66,718.577C1302.48,711.267 1308.25,706.905 1318.61,706.905Z" style="fill:white;"/>
            </g>
            <g transform="matrix(51.5702,0,0,180.771,89.1757,191.851)">
                <path d="M0.144,-0.497C0.191,-0.497 0.231,-0.536 0.231,-0.583C0.231,-0.63 0.191,-0.668 0.144,-0.668C0.097,-0.668 0.058,-0.63 0.058,-0.583C0.058,-0.536 0.097,-0.497 0.144,-0.497Z" style="fill:rgb(112,66,143);"/>
            </g>
        </g>
    </g>
</svg>