<?xml version="1.0" encoding="UTF-8" standalone="no"?><!DOCTYPE svg PUBLIC "-//W3C//DTD SVG 1.1//EN" "http://www.w3.org/Graphics/SVG/1.1/DTD/svg11.dtd"><svg width="100%" height="100%" viewBox="0 0 2662 768" version="1.1" xmlns="http://www.w3.org/2000/svg" xmlns:xlink="http://www.w3.org/1999/xlink" xml:space="preserve" xmlns:serif="http://www.serif.com/" style="fill-rule:evenodd;clip-rule:evenodd;stroke-linejoin:round;stroke-miterlimit:2;"><path id="iShopee" d="M66.076,180.499c37.003,-0 67.587,-30.206 67.587,-66.454c-0,-37.003 -30.584,-66.453 -67.587,-66.453c-36.247,-0 -66.076,29.45 -66.076,66.453c0,36.248 29.829,66.454 66.076,66.454Zm-60.033,384.133l121.199,-0l-0,-335.739l-121.199,0l0,335.739Z" style="fill:#fff;fill-rule:nonzero;"/><path d="M377.688,570.675c88.014,-0 163.148,-51.346 163.148,-145.379c-0,-156.023 -209.252,-128.445 -209.252,-197.579c-0,-18.511 14.738,-29.466 35.522,-29.466c26.453,0 54.796,17.755 82.361,49.11l72.491,-74.404c-35.49,-45.304 -92.501,-74.752 -152.962,-74.752c-72.903,0 -152.19,42.661 -152.19,136.69c0,152.245 210.008,127.69 210.008,196.446c0,19.266 -16.627,32.489 -47.993,32.489c-40.435,-0 -72.156,-21.911 -88.769,-57.045l-93.264,58.933c30.59,57.764 97.417,104.957 180.9,104.957Z" style="fill:#fff;fill-rule:nonzero;"/><path d="M835.875,222.094c-40.433,0 -75.955,20.016 -100.14,52.117l-0,-274.211l-120.821,-0l0,564.632l120.821,-0l-0,-182.788c-0,-27.22 21.918,-54.793 52.905,-54.793c27.586,0 46.103,21.907 46.103,47.214l-0,190.367l120.82,-0l0,-212.274c0,-75.125 -52.859,-130.264 -119.688,-130.264Z" style="fill:#fff;fill-rule:nonzero;"/><path d="M1207.14,571.43c116.341,0 190.344,-73.243 190.344,-174.856c-0,-101.614 -74.003,-174.48 -190.344,-174.48c-117.473,0 -190.342,72.866 -190.342,174.48c-0,101.613 72.869,174.856 190.342,174.856Zm0,-105.712c-40.806,-0.377 -69.522,-29.471 -69.522,-69.144c0,-39.295 28.716,-68.389 69.522,-69.523c40.429,1.134 69.145,30.228 69.145,69.523c0,39.673 -28.716,68.767 -69.145,69.144Z" style="fill:#fff;fill-rule:nonzero;"/><path d="M1678.16,222.094c-35.896,0 -66.124,11.704 -89.55,32.091l-0,-24.536l-120.821,-0.756l0,538.192l120.821,-0l-0,-227.746c23.426,20.388 53.654,32.091 89.55,32.091c91.024,0 163.516,-76.641 163.516,-174.833c0,-98.239 -72.492,-174.503 -163.516,-174.503Zm-26.827,243.624c-38.917,0 -69.522,-29.849 -69.522,-69.144c-0,-38.917 30.605,-69.523 69.522,-69.523c38.54,0 68.767,30.606 68.767,69.523c0,39.295 -30.227,69.144 -68.767,69.144Z" style="fill:#fff;fill-rule:nonzero;"/><path d="M2250.74,395.809c-0,-106.895 -70.999,-174.848 -182.033,-174.848c-111.808,0 -187.322,67.953 -187.322,175.602c0,106.539 74.004,174.867 190.697,174.867c97.072,0 158.639,-49.075 173.748,-121.6l-115.202,0c-6.799,22.3 -27.196,35.529 -60.434,35.529c-44.948,0 -63.456,-24.946 -67.233,-69.168l247.779,-0l-0,-20.382Zm-180.546,-85.377c31.35,-0 48.725,13.236 57.412,37.44l-118.224,0c9.065,-23.447 27.573,-37.44 60.812,-37.44Z" style="fill:#fff;fill-rule:nonzero;"/><path d="M2661.69,395.809c0,-106.895 -70.999,-174.848 -182.032,-174.848c-111.809,0 -187.323,67.953 -187.323,175.602c0,106.539 74.004,174.867 190.698,174.867c97.071,0 158.638,-49.075 173.747,-121.6l-115.202,0c-6.799,22.3 -27.195,35.529 -60.434,35.529c-44.948,0 -63.456,-24.946 -67.233,-69.168l247.779,-0l0,-20.382Zm-180.546,-85.377c31.35,-0 48.725,13.236 57.412,37.44l-118.224,0c9.066,-23.447 27.573,-37.44 60.812,-37.44Z" style="fill:#fff;fill-rule:nonzero;"/></svg>